Coordinates
version=1
nRows=17
nColumns=38
inDegrees=no

Units are S.I. units (second, meters, Newtons, ...)
If the header above contains a line with 'inDegrees', this indicates whether rotational values are in degrees (yes) or radians (no).

endheader
time	pelvis_tilt	pelvis_list	pelvis_rotation	pelvis_tx	pelvis_ty	pelvis_tz	hip_flexion_r	hip_adduction_r	hip_rotation_r	knee_angle_r	ankle_angle_r	subtalar_angle_r	mtp_angle_r	hip_flexion_l	hip_adduction_l	hip_rotation_l	knee_angle_l	ankle_angle_l	subtalar_angle_l	mtp_angle_l	lumbar_extension	lumbar_bending	lumbar_rotation	arm_flex_r	arm_add_r	arm_rot_r	elbow_flex_r	pro_sup_r	wrist_flex_r	wrist_dev_r	arm_flex_l	arm_add_l	arm_rot_l	elbow_flex_l	pro_sup_l	wrist_flex_l	wrist_dev_l
0	0.127506	1.24314	-1.7101	0.687574	1.74409	0.966165	-0.505569	-0.00310701	-0.205181	0	0.0371808	0	0	-0.333635	0.0280248	-0.180976	0.118117	0.0267967	0	0	-0.628851	-0.0299247	0.0541681	0.884552	-0.715562	0.945463	1.22151	0.649475	0	0	0.68499	-0.547422	0.605233	1.35656	0.943091	0	0
0.01	0.125716	1.24572	-1.7107	0.687286	1.74371	0.966056	-0.503352	-0.00313767	-0.202655	0	0.0357566	0	0	-0.330608	0.027369	-0.184018	0.120301	0.0291452	0	0	-0.630277	-0.0302532	0.056324	0.904339	-0.712328	0.963262	1.20846	0.643889	0	0	0.700161	-0.544253	0.612818	1.34502	0.935009	0	0
0.02	0.126041	1.24824	-1.71109	0.687763	1.7438	0.966051	-0.501217	-0.00275984	-0.20235	0	0.0341473	0	0	-0.326072	0.0266181	-0.185688	0.124333	0.031102	0	0	-0.632519	-0.0298392	0.0560763	0.924223	-0.708614	0.980545	1.19538	0.638599	0	0	0.715044	-0.541507	0.619133	1.33468	0.928837	0	0
0.03	0.116152	1.2521	-1.70251	0.687288	1.74309	0.965588	-0.498257	0.000446077	-0.199866	0	0.0337632	0	0	-0.318929	0.025129	-0.205902	0.127801	0.0319329	0	0	-0.632659	-0.0267962	0.0583502	0.943526	-0.705231	0.999173	1.18233	0.630182	0	0	0.728295	-0.538276	0.625314	1.32396	0.921136	0	0
0.04	0.126066	1.25232	-1.71505	0.686698	1.74259	0.965964	-0.498157	-0.00414374	-0.197819	0	0.0321147	0	0	-0.325978	0.0277363	-0.189612	0.117818	0.029146	0	0	-0.636611	-0.0312307	0.0589737	0.959561	-0.701667	1.01259	1.17033	0.626944	0	0	0.742147	-0.534249	0.631893	1.31236	0.919146	0	0
0.05	0.125977	1.25361	-1.71733	0.686496	1.74221	0.966039	-0.497191	-0.0048773	-0.196454	0	0.0315486	0	0	-0.32727	0.0283968	-0.188983	0.113626	0.0264268	0	0	-0.639698	-0.0321865	0.0607544	0.977476	-0.698108	1.02944	1.15798	0.618061	0	0	0.755702	-0.530459	0.638303	1.3013	0.914124	0	0
0.06	0.171251	1.2366	-1.77238	0.68698	1.74223	0.968614	-0.511949	-0.0288883	-0.203045	0	0.029538	0	0	-0.351037	0.0539274	-0.189084	0.096386	0.00618287	0	0	-0.660867	-0.0520124	0.0599696	0.999128	-0.695566	1.04684	1.14644	0.612869	0	0	0.770412	-0.526349	0.643301	1.29118	0.910496	0	0
0.07	0.172342	1.23828	-1.77438	0.686936	1.74194	0.968616	-0.510351	-0.0293589	-0.203361	0	0.0281123	0	0	-0.349469	0.0542105	-0.189925	0.0964453	0.00562663	0	0	-0.663843	-0.0526481	0.0606165	1.01506	-0.691557	1.06002	1.13389	0.608197	0	0	0.783478	-0.522557	0.649052	1.28052	0.906878	0	0
0.08	0.172827	1.24014	-1.77591	0.686708	1.74158	0.968609	-0.508637	-0.0297276	-0.202771	0	0.0268149	0	0	-0.34771	0.0544051	-0.191425	0.0965753	0.00524537	0	0	-0.666649	-0.0531822	0.0615407	1.03048	-0.687721	1.07284	1.12254	0.605965	0	0	0.796219	-0.518608	0.654953	1.27013	0.90503	0	0
0.09	0.126259	1.26134	-1.72186	0.68612	1.74086	0.96601	-0.490253	-0.00554926	-0.194233	0	0.0288855	0	0	-0.319642	0.0282705	-0.194499	0.115522	0.0253566	0	0	-0.650603	-0.0338382	0.0646159	1.0414	-0.682425	1.08394	1.11001	0.600068	0	0	0.807037	-0.514899	0.661013	1.25897	0.903916	0	0
0.1	0.174341	1.24384	-1.77888	0.686646	1.74092	0.968618	-0.505161	-0.0301242	-0.201576	0	0.0265458	0	0	-0.343308	0.054554	-0.195025	0.0986645	0.00653405	0	0	-0.672297	-0.0534792	0.0624884	1.06305	-0.679915	1.10178	1.10029	0.597863	0	0	0.820838	-0.510749	0.664906	1.24888	0.902652	0	0
0.11	0.127787	1.26572	-1.72323	0.68623	1.74029	0.965972	-0.486137	-0.00529665	-0.193434	0	0.0281164	0	0	-0.313145	0.0276469	-0.197856	0.120357	0.0290185	0	0	-0.65569	-0.0330831	0.0642385	1.07352	-0.674335	1.11256	1.08726	0.595978	0	0	0.830889	-0.507608	0.66903	1.23752	0.900496	0	0
0.12	0.126948	1.26791	-1.72401	0.686039	1.73979	0.965908	-0.484229	-0.00520523	-0.191679	0	0.0284534	0	0	-0.311733	0.0274779	-0.199685	0.119916	0.0287936	0	0	-0.657816	-0.0333534	0.0655399	1.08893	-0.669896	1.12753	1.07507	0.591692	0	0	0.842397	-0.504326	0.673507	1.22673	0.898766	0	0
0.13	0.125428	1.27042	-1.72378	0.685819	1.73934	0.965808	-0.481983	-0.00462559	-0.189553	0	0.0286351	0	0	-0.308983	0.0266491	-0.20198	0.121537	0.029465	0	0	-0.65974	-0.0332855	0.0666263	1.10376	-0.665274	1.14152	1.06315	0.586757	0	0	0.854341	-0.501162	0.678927	1.21576	0.898099	0	0
0.14	0.124081	1.27237	-1.72324	0.685734	1.73886	0.965761	-0.4803	-0.00422581	-0.188468	0	0.0282163	0	0	-0.306434	0.0259958	-0.203671	0.123773	0.0298443	0	0	-0.662385	-0.0328217	0.0669734	1.11897	-0.660635	1.15578	1.05158	0.581097	0	0	0.866297	-0.498514	0.684554	1.20568	0.89761	0	0
0.15	0.123419	1.27435	-1.72343	0.685629	1.73834	0.965706	-0.47875	-0.00401011	-0.187294	0	0.027935	0	0	-0.304875	0.0256425	-0.204903	0.124051	0.0292525	0	0	-0.664768	-0.0326817	0.0670875	1.13376	-0.65559	1.17041	1.03969	0.574803	0	0	0.8783	-0.496109	0.691189	1.19532	0.8991	0	0
0.16	0.122008	1.27603	-1.7235	0.685598	1.73765	0.965661	-0.477728	-0.00409993	-0.185833	0	0.0279207	0	0	-0.304854	0.0256628	-0.206613	0.122396	0.0285884	0	0	-0.667041	-0.0325624	0.0680623	1.14825	-0.650927	1.18602	1.02776	0.568349	0	0	0.890341	-0.493103	0.69963	1.18344	0.903645	0	0
